#!OML:ASF H:\Terrain\Patient Classification 1\Animal1\Tuesday\Animal1.ASF
:FULLY-SPECIFIED
:DEGREES
3889
root 15.4657 14.3218 -13.1802 12.6728 -27.6802 7.25498
lowerback 11.2487 -1.09908 -2.71728
upperback -7.89708 -2.20647 -1.25101
thorax -15.1253 -0.847665 0.660758
lowerneck -13.668 -1.74546 -5.20491
upperneck 3.36425 -1.94776 6.8298
head 3.32664 -0.717277 2.80249
rclavicle 4.76835e-014 1.07344e-014
rhumerus 39.7941 3.35618 -73.5151
rradius 105.472
rwrist 18.5357
rhand 50.3273 -7.96566
rfingers 7.12502
rthumb 70.1644 -3.16892
lclavicle 4.76835e-014 1.07344e-014
lhumerus 6.52023 -28.2436 94.3837
lradius 103.896
lwrist -64.0676
lhand 51.2214 64.4131
lfingers 7.12502
lthumb 70.7299 -302.334
rfemur -89.5849 -13.1919 16.131
rtibia 90.86
rfoot 37.0386 19.1124
rtoes -0.549739
lfemur -51.4397 -13.5142 -32.9417
ltibia 64.7187
lfoot -24.75 11.6683
ltoes 0.95212
3890
root 15.4717 14.3138 -13.1923 12.9192 -27.5393 7.35959
lowerback 11.2925 -1.13987 -2.72104
upperback -7.93616 -2.26436 -1.2347
thorax -15.1982 -0.871629 0.696387
lowerneck -13.78 -1.74233 -5.34606
upperneck 3.27869 -1.91363 6.86154
head 3.3179 -0.699777 2.83736
rclavicle 7.37988e-015 -2.38542e-014
rhumerus 40.2213 3.4037 -73.0059
rradius 105.363
rwrist 18.0737
rhand 50.6215 -7.94618
rfingers 7.12502
rthumb 70.3531 -2.52042
lclavicle 7.37988e-015 -2.38542e-014
lhumerus 6.81408 -28.324 94.4555
lradius 103.794
lwrist -64.0008
lhand 52.3145 64.4322
lfingers 7.12502
lthumb 71.3876 -304.86
rfemur -90.0706 -13.3927 16.1772
rtibia 90.9402
rfoot 37.2235 19.0461
rtoes -0.674155
lfemur -51.8885 -13.6427 -32.9809
ltibia 64.8278
lfoot -24.5085 11.9976
ltoes -1.02624
3891
root 15.4768 14.3034 -13.1993 13.1009 -27.3167 7.44916
lowerback 11.4113 -1.26629 -2.65752
upperback -7.96139 -2.41948 -1.14925
thorax -15.2982 -0.941891 0.797352
lowerneck -13.8546 -1.6756 -5.56145
upperneck 3.26045 -1.78142 6.83626
head 3.31722 -0.637566 2.87371
rclavicle 2.21148e-014 2.54444e-014
rhumerus 40.7805 3.63195 -72.6001
rradius 105.171
rwrist 17.8487
rhand 50.1032 -7.80472
rfingers 7.12502
rthumb 70.019 -3.47898
lclavicle 2.21148e-014 2.54444e-014
lhumerus 6.96931 -28.1635 94.6576
lradius 103.602
lwrist -64.0968
lhand 52.9835 64.4907
lfingers 7.12502
lthumb 71.7703 -306.449
rfemur -90.412 -13.6955 16.2281
rtibia 91.0162
rfoot 37.4309 18.6447
rtoes -0.47977
lfemur -52.2126 -13.8365 -33.021
ltibia 64.9609
lfoot -24.3063 12.3332
ltoes -3.58267
3892
root 15.4789 14.2961 -13.2101 13.5597 -27.0444 7.13621
lowerback 11.4522 -1.36091 -2.27231
upperback -8.00041 -2.46512 -1.03743
thorax -15.3789 -0.993979 0.719506
lowerneck -13.914 -1.60756 -5.58982
upperneck 3.181 -1.67784 6.80764
head 3.29572 -0.587697 2.87652
rclavicle -5.75979e-014 -3.1408e-014
rhumerus 41.197 3.89285 -72.4463
rradius 104.993
rwrist 17.9213
rhand 49.2867 -7.86021
rfingers 7.12502
rthumb 69.4779 -5.19204
lclavicle -5.75979e-014 -3.1408e-014
lhumerus 7.13489 -28.2542 94.79
lradius 103.358
lwrist -64.2622
lhand 52.9661 64.7935
lfingers 7.12502
lthumb 71.7606 -306.102
rfemur -90.7264 -13.8251 16.6686
rtibia 91.0189
rfoot 38.096 17.3135
rtoes 2.26933
lfemur -52.7443 -14.0417 -32.5719
ltibia 65.1412
lfoot -24.2354 12.3742
ltoes -4.33363
3893
root 15.4796 14.289 -13.2237 13.9902 -26.8981 6.89901
lowerback 11.4973 -1.34569 -2.04517
upperback -8.0828 -2.39577 -0.956956
thorax -15.5142 -0.977782 0.667961
lowerneck -13.7336 -1.59745 -5.53308
upperneck 2.93289 -1.65813 6.61375
head 3.18758 -0.590863 2.8083
rclavicle -5.59827e-014 1.66979e-014
rhumerus 41.4473 3.99725 -72.1143
rradius 104.896
rwrist 17.8393
rhand 48.8041 -7.95511
rfingers 7.12502
rthumb 69.15 -6.22463
lclavicle -5.59827e-014 1.66979e-014
lhumerus 7.30145 -28.6184 94.8791
lradius 103.18
lwrist -64.2761
lhand 53.0903 65.292
lfingers 7.12502
lthumb 71.8299 -305.917
rfemur -91.0741 -13.8403 17.0484
rtibia 91.0186
rfoot 38.9625 15.6479
rtoes 6.19283
lfemur -53.3019 -14.1389 -32.2055
ltibia 65.3217
lfoot -24.2318 12.3289
ltoes -4.13373
3894
root 15.4811 14.2798 -13.234 14.1643 -26.8285 6.95391
lowerback 11.6405 -1.33576 -2.08033
upperback -8.13445 -2.38553 -0.88798
thorax -15.6648 -0.961174 0.767668
lowerneck -13.4317 -1.53963 -5.47352
upperneck 2.55227 -1.57036 6.32721
head 3.01499 -0.56668 2.71575
rclavicle 4.70871e-014 -1.63003e-014
rhumerus 41.7237 4.01444 -71.6148
rradius 104.838
rwrist 17.7399
rhand 49.0665 -7.63375
rfingers 7.12502
rthumb 69.329 -5.39716
lclavicle 4.70871e-014 -1.63003e-014
lhumerus 7.44299 -28.9126 94.9978
lradius 103.152
lwrist -64.1824
lhand 53.0179 65.2983
lfingers 7.12502
lthumb 71.7896 -305.728
rfemur -91.3427 -13.96 17.1621
rtibia 91.0739
rfoot 39.0043 15.6392
rtoes 5.50588
lfemur -53.6595 -14.1909 -32.1982
ltibia 65.4772
lfoot -24.2971 12.1777
ltoes -3.58303
3895
root 15.483 14.2667 -13.241 14.2464 -26.6813 7.13706
lowerback 11.8439 -1.34284 -2.12551
upperback -8.1614 -2.4172 -0.92866
thorax -15.8287 -0.970694 0.761467
lowerneck -13.3365 -1.51547 -5.50814
upperneck 2.35723 -1.53495 6.40773
head 2.94008 -0.548561 2.74834
rclavicle 8.52289e-015 9.93923e-015
rhumerus 42.078 4.03105 -71.3403
rradius 104.642
rwrist 17.6464
rhand 49.1637 -7.58898
rfingers 7.12502
rthumb 69.3949 -5.16258
lclavicle 8.52289e-015 9.93923e-015
lhumerus 7.58205 -29.2615 95.0939
lradius 103.201
lwrist -63.9871
lhand 52.6686 65.2466
lfingers 7.12502
lthumb 71.5922 -304.909
rfemur -91.6395 -14.2624 17.183
rtibia 91.2054
rfoot 38.4105 16.7052
rtoes 1.69642
lfemur -53.9302 -14.3531 -32.3112
ltibia 65.5971
lfoot -24.4249 11.9177
ltoes -2.72684
3896
root 15.4863 14.2557 -13.2492 14.4411 -26.4084 7.20748
lowerback 11.997 -1.31322 -1.95147
upperback -8.16091 -2.36334 -1.03635
thorax -15.9403 -0.970955 0.533025
lowerneck -13.5757 -1.6916 -5.61651
upperneck 2.47003 -1.7548 6.55345
head 3.028 -0.64788 2.79623
rclavicle -7.196e-014 -1.51076e-014
rhumerus 42.5417 3.81722 -71.0447
rradius 104.355
rwrist 17.5937
rhand 49.0317 -8.04578
rfingers 7.12502
rthumb 69.3054 -5.87686
lclavicle -7.196e-014 -1.51076e-014
lhumerus 7.80319 -29.9992 95.1893
lradius 103.139
lwrist -63.9669
lhand 52.4072 65.9665
lfingers 7.12502
lthumb 71.4416 -303.549
rfemur -91.9942 -14.6452 17.3282
rtibia 91.3396
rfoot 37.937 17.4662
rtoes -0.660734
lfemur -54.2786 -14.5938 -32.2757
ltibia 65.693
lfoot -24.4848 11.5418
ltoes -1.88191
3897
root 15.4895 14.2571 -13.2617 14.6036 -26.0893 7.15431
lowerback 12.2235 -1.31468 -1.73272
upperback -8.08317 -2.32892 -1.05943
thorax -16.0011 -0.978905 0.380642
lowerneck -14.0786 -1.92148 -5.81792
upperneck 2.68658 -2.01968 6.66603
head 3.19257 -0.766991 2.84484
rclavicle 3.0265e-014 2.74323e-014
rhumerus 43.0087 3.4531 -70.6135
rradius 104.255
rwrist 17.9217
rhand 49.8463 -8.12549
rfingers 7.12502
rthumb 69.8507 -4.33103
lclavicle 3.0265e-014 2.74323e-014
lhumerus 8.18905 -30.1103 95.3521
lradius 102.778
lwrist -64.3636
lhand 53.8425 65.0524
lfingers 7.12502
lthumb 72.2376 -308.106
rfemur -92.1234 -14.982 17.5704
rtibia 91.3985
rfoot 37.6886 17.6759
rtoes -1.24423
lfemur -54.4978 -14.7419 -32.1419
ltibia 65.7338
lfoot -24.549 11.1179
ltoes -1.29154
3898
root 15.4902 14.2565 -13.2782 14.7877 -25.8023 7.12271
lowerback 12.4409 -1.3878 -1.62738
upperback -8.07333 -2.40588 -1.00691
thorax -16.1298 -1.01917 0.40667
lowerneck -14.0834 -1.97587 -6.01639
upperneck 2.41281 -2.05312 6.75016
head 3.11539 -0.783632 2.90055
rclavicle 1.49089e-014 -8.74653e-015
rhumerus 43.3221 3.41948 -70.2523
rradius 104.122
rwrist 18.0766
rhand 49.5077 -7.83334
rfingers 7.12502
rthumb 69.6261 -4.72539
lclavicle 1.49089e-014 -8.74653e-015
lhumerus 8.4093 -30.3109 95.4011
lradius 102.773
lwrist -64.2899
lhand 53.2602 64.4058
lfingers 7.12502
lthumb 71.9239 -307.236
rfemur -92.3697 -15.3947 17.9668
rtibia 91.4466
rfoot 37.6169 17.584
rtoes -1.14867
lfemur -54.7624 -14.831 -32.0197
ltibia 65.7722
lfoot -24.5722 10.8108
ltoes -0.987628
